<mxfile host="app.diagrams.net" modified="2024-03-12T10:15:43.227Z" agent="Mozilla/5.0 (Windows NT 10.0; Win64; x64) AppleWebKit/537.36 (KHTML, like Gecko) Chrome/122.0.0.0 Safari/537.36" etag="Mhi5yomZFdbdwUsdzc0s" version="24.0.5" type="device">
  <diagram name="페이지-1" id="7xMqIdexKjdDgHGP8PmK">
    <mxGraphModel dx="1434" dy="746" grid="1" gridSize="10" guides="1" tooltips="1" connect="1" arrows="1" fold="1" page="1" pageScale="1" pageWidth="827" pageHeight="1169" math="0" shadow="0">
      <root>
        <mxCell id="0" />
        <mxCell id="1" parent="0" />
        <mxCell id="1oT7Ll-6z32I2QObFxdU-6" style="edgeStyle=orthogonalEdgeStyle;rounded=0;orthogonalLoop=1;jettySize=auto;html=1;exitX=0.5;exitY=1;exitDx=0;exitDy=0;entryX=0.5;entryY=0;entryDx=0;entryDy=0;" edge="1" parent="1" source="1oT7Ll-6z32I2QObFxdU-1" target="1oT7Ll-6z32I2QObFxdU-2">
          <mxGeometry relative="1" as="geometry" />
        </mxCell>
        <mxCell id="1oT7Ll-6z32I2QObFxdU-1" value="count=10;&lt;div&gt;sum=0&lt;/div&gt;" style="rounded=0;whiteSpace=wrap;html=1;" vertex="1" parent="1">
          <mxGeometry x="340" y="90" width="120" height="60" as="geometry" />
        </mxCell>
        <mxCell id="1oT7Ll-6z32I2QObFxdU-7" style="edgeStyle=orthogonalEdgeStyle;rounded=0;orthogonalLoop=1;jettySize=auto;html=1;exitX=0.5;exitY=1;exitDx=0;exitDy=0;entryX=0.5;entryY=0;entryDx=0;entryDy=0;" edge="1" parent="1" source="1oT7Ll-6z32I2QObFxdU-2" target="1oT7Ll-6z32I2QObFxdU-3">
          <mxGeometry relative="1" as="geometry" />
        </mxCell>
        <mxCell id="1oT7Ll-6z32I2QObFxdU-12" value="F" style="edgeLabel;html=1;align=center;verticalAlign=middle;resizable=0;points=[];" vertex="1" connectable="0" parent="1oT7Ll-6z32I2QObFxdU-7">
          <mxGeometry x="-0.28" y="-4" relative="1" as="geometry">
            <mxPoint as="offset" />
          </mxGeometry>
        </mxCell>
        <mxCell id="1oT7Ll-6z32I2QObFxdU-8" style="edgeStyle=orthogonalEdgeStyle;rounded=0;orthogonalLoop=1;jettySize=auto;html=1;exitX=0;exitY=0.5;exitDx=0;exitDy=0;entryX=0;entryY=0.75;entryDx=0;entryDy=0;" edge="1" parent="1" source="1oT7Ll-6z32I2QObFxdU-2" target="1oT7Ll-6z32I2QObFxdU-5">
          <mxGeometry relative="1" as="geometry">
            <Array as="points">
              <mxPoint x="260" y="240" />
              <mxPoint x="260" y="480" />
              <mxPoint x="346" y="480" />
            </Array>
          </mxGeometry>
        </mxCell>
        <mxCell id="1oT7Ll-6z32I2QObFxdU-11" value="T" style="edgeLabel;html=1;align=center;verticalAlign=middle;resizable=0;points=[];" vertex="1" connectable="0" parent="1oT7Ll-6z32I2QObFxdU-8">
          <mxGeometry x="-0.8925" y="-2" relative="1" as="geometry">
            <mxPoint as="offset" />
          </mxGeometry>
        </mxCell>
        <mxCell id="1oT7Ll-6z32I2QObFxdU-2" value="count==0" style="rounded=0;whiteSpace=wrap;html=1;" vertex="1" parent="1">
          <mxGeometry x="340" y="210" width="120" height="60" as="geometry" />
        </mxCell>
        <mxCell id="1oT7Ll-6z32I2QObFxdU-9" style="edgeStyle=orthogonalEdgeStyle;rounded=0;orthogonalLoop=1;jettySize=auto;html=1;exitX=1;exitY=0.5;exitDx=0;exitDy=0;entryX=0;entryY=0.5;entryDx=0;entryDy=0;" edge="1" parent="1" source="1oT7Ll-6z32I2QObFxdU-3" target="1oT7Ll-6z32I2QObFxdU-4">
          <mxGeometry relative="1" as="geometry" />
        </mxCell>
        <mxCell id="1oT7Ll-6z32I2QObFxdU-3" value="N입력&lt;div&gt;sum+=N&lt;/div&gt;" style="rounded=0;whiteSpace=wrap;html=1;" vertex="1" parent="1">
          <mxGeometry x="340" y="320" width="120" height="60" as="geometry" />
        </mxCell>
        <mxCell id="1oT7Ll-6z32I2QObFxdU-10" style="edgeStyle=orthogonalEdgeStyle;rounded=0;orthogonalLoop=1;jettySize=auto;html=1;exitX=0.5;exitY=0;exitDx=0;exitDy=0;entryX=1;entryY=0.5;entryDx=0;entryDy=0;" edge="1" parent="1" source="1oT7Ll-6z32I2QObFxdU-4" target="1oT7Ll-6z32I2QObFxdU-2">
          <mxGeometry relative="1" as="geometry" />
        </mxCell>
        <mxCell id="1oT7Ll-6z32I2QObFxdU-4" value="count--" style="rounded=0;whiteSpace=wrap;html=1;" vertex="1" parent="1">
          <mxGeometry x="510" y="320" width="120" height="60" as="geometry" />
        </mxCell>
        <mxCell id="1oT7Ll-6z32I2QObFxdU-5" value="sum 출력" style="shape=parallelogram;perimeter=parallelogramPerimeter;whiteSpace=wrap;html=1;fixedSize=1;" vertex="1" parent="1">
          <mxGeometry x="340" y="440" width="120" height="60" as="geometry" />
        </mxCell>
      </root>
    </mxGraphModel>
  </diagram>
</mxfile>
